<svg width="24" height="24" viewBox="0 0 16 16" fill="none" xmlns="http://www.w3.org/2000/svg">
<g clip-path="url(#clip0_668_779)">
<path d="M16 8C16 3.58176 12.4182 0 8 0C3.58176 0 0 3.58176 0 8C0 11.7517 2.58304 14.8998 6.06752 15.7645V10.4448H4.41792V8H6.06752V6.94656C6.06752 4.22368 7.29984 2.9616 9.97312 2.9616C10.48 2.9616 11.3546 3.06112 11.7123 3.16032V5.37632C11.5235 5.35648 11.1955 5.34656 10.7882 5.34656C9.47648 5.34656 8.9696 5.84352 8.9696 7.13536V8H11.5827L11.1338 10.4448H8.9696V15.9414C12.9309 15.463 16.0003 12.0902 16.0003 8H16Z" fill="#0866FF"/>
<path d="M11.1334 10.4449L11.5824 8.00007H8.96928V7.13543C8.96928 5.84359 9.47616 5.34663 10.7878 5.34663C11.1952 5.34663 11.5232 5.35655 11.712 5.37639V3.16039C11.3542 3.06087 10.4797 2.96167 9.9728 2.96167C7.29952 2.96167 6.0672 4.22375 6.0672 6.94663V8.00007H4.4176V10.4449H6.0672V15.7646C6.68608 15.9181 7.33344 16.0001 7.99968 16.0001C8.32768 16.0001 8.6512 15.9799 8.96896 15.9415V10.4449H11.1331H11.1334Z" fill="white"/>
</g>
<defs>
<clipPath id="clip0_668_779">
<rect width="16" height="16" fill="white"/>
</clipPath>
</defs>
</svg>
